<mxfile host="app.diagrams.net" agent="Mozilla/5.0 (Macintosh; Intel Mac OS X 10_15_7) AppleWebKit/537.36 (KHTML, like Gecko) Chrome/133.0.0.0 Safari/537.36" version="26.0.16">
  <diagram id="Ht1M8jgEwFfnCIfOTk4-" name="Page-1">
    <mxGraphModel dx="1080" dy="647" grid="1" gridSize="10" guides="1" tooltips="1" connect="1" arrows="1" fold="1" page="1" pageScale="1" pageWidth="1169" pageHeight="827" math="0" shadow="0">
      <root>
        <mxCell id="0" />
        <mxCell id="1" parent="0" />
        <mxCell id="5zxUk0K1NqiDHCe18hxs-99" value="" style="whiteSpace=wrap;html=1;fillColor=none;dashed=1;" vertex="1" parent="1">
          <mxGeometry x="600" y="160" width="200" height="450" as="geometry" />
        </mxCell>
        <mxCell id="5zxUk0K1NqiDHCe18hxs-98" value="" style="whiteSpace=wrap;html=1;fillColor=none;dashed=1;" vertex="1" parent="1">
          <mxGeometry x="820" y="160" width="370" height="450" as="geometry" />
        </mxCell>
        <mxCell id="5zxUk0K1NqiDHCe18hxs-100" value="" style="whiteSpace=wrap;html=1;fillColor=none;dashed=1;" vertex="1" parent="1">
          <mxGeometry x="30" y="160" width="555" height="450" as="geometry" />
        </mxCell>
        <mxCell id="5zxUk0K1NqiDHCe18hxs-58" value="Frame Sharpening" style="outlineConnect=0;fontColor=#232F3E;gradientColor=#F34482;gradientDirection=north;fillColor=#BC1356;strokeColor=#ffffff;dashed=0;verticalLabelPosition=bottom;verticalAlign=top;align=center;html=1;fontSize=12;fontStyle=0;aspect=fixed;shape=mxgraph.aws4.resourceIcon;resIcon=mxgraph.aws4.sqs;labelBackgroundColor=#ffffff;" vertex="1" parent="1">
          <mxGeometry x="190" y="375" width="78" height="78" as="geometry" />
        </mxCell>
        <mxCell id="5zxUk0K1NqiDHCe18hxs-59" value="" style="whiteSpace=wrap;html=1;aspect=fixed;dashed=0;strokeColor=#ffffff;align=center;verticalAlign=top;fontFamily=Helvetica;fontSize=12;fontColor=#232F3E;fontStyle=0;labelBackgroundColor=#ffffff;fillColor=light-dark(#8c4fff, #ff97d1);gradientColor=none;gradientDirection=north;" vertex="1" parent="1">
          <mxGeometry x="190" y="375" width="78" height="78" as="geometry" />
        </mxCell>
        <mxCell id="5zxUk0K1NqiDHCe18hxs-60" value="&lt;div&gt;Pre Trained&lt;/div&gt;&lt;div&gt;Gesture Model&lt;/div&gt;" style="outlineConnect=0;fontColor=#232F3E;gradientColor=#F34482;gradientDirection=north;fillColor=#BC1356;strokeColor=#ffffff;dashed=0;verticalLabelPosition=bottom;verticalAlign=top;align=center;html=1;fontSize=12;fontStyle=0;aspect=fixed;shape=mxgraph.aws4.resourceIcon;resIcon=mxgraph.aws4.sns;labelBackgroundColor=#ffffff;" vertex="1" parent="1">
          <mxGeometry x="660" y="245" width="78" height="78" as="geometry" />
        </mxCell>
        <mxCell id="5zxUk0K1NqiDHCe18hxs-61" value="Custom&lt;div&gt;Gesture Model&lt;/div&gt;" style="outlineConnect=0;fontColor=#232F3E;gradientColor=#F34482;gradientDirection=north;fillColor=#BC1356;strokeColor=#ffffff;dashed=0;verticalLabelPosition=bottom;verticalAlign=top;align=center;html=1;fontSize=12;fontStyle=0;aspect=fixed;shape=mxgraph.aws4.resourceIcon;resIcon=mxgraph.aws4.cloudwatch;labelBackgroundColor=#ffffff;" vertex="1" parent="1">
          <mxGeometry x="660" y="375" width="78" height="78" as="geometry" />
        </mxCell>
        <mxCell id="5zxUk0K1NqiDHCe18hxs-62" value="Gaze Analysis" style="outlineConnect=0;fontColor=#232F3E;gradientColor=#F34482;gradientDirection=north;fillColor=#BC1356;strokeColor=#ffffff;dashed=0;verticalLabelPosition=bottom;verticalAlign=top;align=center;html=1;fontSize=12;fontStyle=0;aspect=fixed;shape=mxgraph.aws4.resourceIcon;resIcon=mxgraph.aws4.sns;labelBackgroundColor=#ffffff;" vertex="1" parent="1">
          <mxGeometry x="660" y="505" width="78" height="78" as="geometry" />
        </mxCell>
        <mxCell id="5zxUk0K1NqiDHCe18hxs-63" value="Open CV" style="outlineConnect=0;fontColor=#232F3E;gradientColor=#F34482;gradientDirection=north;fillColor=#BC1356;strokeColor=#ffffff;dashed=0;verticalLabelPosition=bottom;verticalAlign=top;align=center;html=1;fontSize=12;fontStyle=0;aspect=fixed;shape=mxgraph.aws4.resourceIcon;resIcon=mxgraph.aws4.cloudtrail;labelBackgroundColor=#ffffff;" vertex="1" parent="1">
          <mxGeometry x="330" y="375" width="78" height="78" as="geometry" />
        </mxCell>
        <mxCell id="5zxUk0K1NqiDHCe18hxs-64" value="" style="rounded=0;orthogonalLoop=1;jettySize=auto;html=1;endArrow=open;endFill=0;strokeWidth=2;" edge="1" parent="1" source="5zxUk0K1NqiDHCe18hxs-63" target="5zxUk0K1NqiDHCe18hxs-65">
          <mxGeometry relative="1" as="geometry">
            <mxPoint x="49" y="539.95" as="sourcePoint" />
            <mxPoint x="217.00000000000023" y="438.9976190476189" as="targetPoint" />
          </mxGeometry>
        </mxCell>
        <mxCell id="5zxUk0K1NqiDHCe18hxs-65" value="Mediapipe Raw Data" style="outlineConnect=0;fontColor=#232F3E;gradientColor=#F34482;gradientDirection=north;fillColor=#BC1356;strokeColor=#ffffff;dashed=0;verticalLabelPosition=bottom;verticalAlign=top;align=center;html=1;fontSize=12;fontStyle=0;aspect=fixed;shape=mxgraph.aws4.resourceIcon;resIcon=mxgraph.aws4.cloudtrail;labelBackgroundColor=#ffffff;" vertex="1" parent="1">
          <mxGeometry x="470" y="375" width="78" height="78" as="geometry" />
        </mxCell>
        <mxCell id="5zxUk0K1NqiDHCe18hxs-66" value="" style="rounded=0;orthogonalLoop=1;jettySize=auto;html=1;endArrow=open;endFill=0;strokeWidth=2;" edge="1" parent="1" source="5zxUk0K1NqiDHCe18hxs-65" target="5zxUk0K1NqiDHCe18hxs-61">
          <mxGeometry relative="1" as="geometry" />
        </mxCell>
        <mxCell id="5zxUk0K1NqiDHCe18hxs-67" value="" style="rounded=0;orthogonalLoop=1;jettySize=auto;html=1;endArrow=open;endFill=0;strokeWidth=2;" edge="1" parent="1" source="5zxUk0K1NqiDHCe18hxs-65" target="5zxUk0K1NqiDHCe18hxs-60">
          <mxGeometry relative="1" as="geometry">
            <mxPoint x="588" y="434" as="sourcePoint" />
            <mxPoint x="620" y="434" as="targetPoint" />
          </mxGeometry>
        </mxCell>
        <mxCell id="5zxUk0K1NqiDHCe18hxs-68" value="" style="rounded=0;orthogonalLoop=1;jettySize=auto;html=1;endArrow=open;endFill=0;strokeWidth=2;" edge="1" parent="1" source="5zxUk0K1NqiDHCe18hxs-65" target="5zxUk0K1NqiDHCe18hxs-62">
          <mxGeometry relative="1" as="geometry">
            <mxPoint x="578" y="635" as="sourcePoint" />
            <mxPoint x="620" y="674" as="targetPoint" />
          </mxGeometry>
        </mxCell>
        <mxCell id="5zxUk0K1NqiDHCe18hxs-69" value="Gesture Response&lt;div&gt;with&lt;/div&gt;&lt;div&gt;Attention Tracking&lt;/div&gt;" style="outlineConnect=0;fontColor=#232F3E;gradientColor=#F34482;gradientDirection=north;fillColor=#BC1356;strokeColor=#ffffff;dashed=0;verticalLabelPosition=bottom;verticalAlign=top;align=center;html=1;fontSize=12;fontStyle=0;aspect=fixed;shape=mxgraph.aws4.resourceIcon;resIcon=mxgraph.aws4.sqs;labelBackgroundColor=#ffffff;" vertex="1" parent="1">
          <mxGeometry x="880" y="375" width="78" height="78" as="geometry" />
        </mxCell>
        <mxCell id="5zxUk0K1NqiDHCe18hxs-70" value="" style="rounded=0;orthogonalLoop=1;jettySize=auto;html=1;endArrow=open;endFill=0;strokeWidth=2;" edge="1" parent="1" source="5zxUk0K1NqiDHCe18hxs-60" target="5zxUk0K1NqiDHCe18hxs-69">
          <mxGeometry relative="1" as="geometry">
            <mxPoint x="810" y="475" as="sourcePoint" />
            <mxPoint x="942" y="405" as="targetPoint" />
          </mxGeometry>
        </mxCell>
        <mxCell id="5zxUk0K1NqiDHCe18hxs-71" value="" style="rounded=0;orthogonalLoop=1;jettySize=auto;html=1;endArrow=open;endFill=0;strokeWidth=2;" edge="1" parent="1" source="5zxUk0K1NqiDHCe18hxs-61" target="5zxUk0K1NqiDHCe18hxs-69">
          <mxGeometry relative="1" as="geometry">
            <mxPoint x="748" y="450" as="sourcePoint" />
            <mxPoint x="890" y="528" as="targetPoint" />
          </mxGeometry>
        </mxCell>
        <mxCell id="5zxUk0K1NqiDHCe18hxs-72" value="" style="rounded=0;orthogonalLoop=1;jettySize=auto;html=1;endArrow=open;endFill=0;strokeWidth=2;" edge="1" parent="1" source="5zxUk0K1NqiDHCe18hxs-62" target="5zxUk0K1NqiDHCe18hxs-69">
          <mxGeometry relative="1" as="geometry">
            <mxPoint x="738" y="553" as="sourcePoint" />
            <mxPoint x="880" y="553" as="targetPoint" />
          </mxGeometry>
        </mxCell>
        <mxCell id="5zxUk0K1NqiDHCe18hxs-73" value="MacOS Shell Calls&lt;div&gt;(Apple Scripting)&lt;/div&gt;" style="outlineConnect=0;fontColor=#232F3E;gradientColor=#F34482;gradientDirection=north;fillColor=#BC1356;strokeColor=#ffffff;dashed=0;verticalLabelPosition=bottom;verticalAlign=top;align=center;html=1;fontSize=12;fontStyle=0;aspect=fixed;shape=mxgraph.aws4.resourceIcon;resIcon=mxgraph.aws4.sqs;labelBackgroundColor=#ffffff;" vertex="1" parent="1">
          <mxGeometry x="1060" y="297" width="78" height="78" as="geometry" />
        </mxCell>
        <mxCell id="5zxUk0K1NqiDHCe18hxs-74" value="" style="rounded=0;orthogonalLoop=1;jettySize=auto;html=1;endArrow=open;endFill=0;strokeWidth=2;" edge="1" parent="1" source="5zxUk0K1NqiDHCe18hxs-69" target="5zxUk0K1NqiDHCe18hxs-73">
          <mxGeometry relative="1" as="geometry">
            <mxPoint x="990" y="535" as="sourcePoint" />
            <mxPoint x="1132" y="613" as="targetPoint" />
          </mxGeometry>
        </mxCell>
        <mxCell id="5zxUk0K1NqiDHCe18hxs-75" value="PyAutoGUI for&amp;nbsp;&lt;div&gt;Mouse Movements and Clicks&amp;nbsp;&lt;/div&gt;" style="outlineConnect=0;fontColor=#232F3E;gradientColor=none;gradientDirection=north;fillColor=light-dark(#dd344c, #ff97d1);strokeColor=#ffffff;dashed=0;verticalLabelPosition=bottom;verticalAlign=top;align=center;html=1;fontSize=12;fontStyle=0;aspect=fixed;shape=mxgraph.aws4.resourceIcon;resIcon=mxgraph.aws4.sqs;labelBackgroundColor=#ffffff;" vertex="1" parent="1">
          <mxGeometry x="1060" y="453" width="78" height="78" as="geometry" />
        </mxCell>
        <mxCell id="5zxUk0K1NqiDHCe18hxs-76" value="" style="rounded=0;orthogonalLoop=1;jettySize=auto;html=1;endArrow=open;endFill=0;strokeWidth=2;" edge="1" parent="1" source="5zxUk0K1NqiDHCe18hxs-69" target="5zxUk0K1NqiDHCe18hxs-75">
          <mxGeometry relative="1" as="geometry">
            <mxPoint x="980" y="497" as="sourcePoint" />
            <mxPoint x="1092" y="445" as="targetPoint" />
          </mxGeometry>
        </mxCell>
        <mxCell id="5zxUk0K1NqiDHCe18hxs-77" value="" style="rounded=0;orthogonalLoop=1;jettySize=auto;html=1;endArrow=open;endFill=0;strokeWidth=2;exitX=1;exitY=0.5;exitDx=0;exitDy=0;" edge="1" parent="1" source="5zxUk0K1NqiDHCe18hxs-59" target="5zxUk0K1NqiDHCe18hxs-63">
          <mxGeometry relative="1" as="geometry">
            <mxPoint x="283.9499999999998" y="505" as="sourcePoint" />
          </mxGeometry>
        </mxCell>
        <mxCell id="5zxUk0K1NqiDHCe18hxs-78" value="" style="edgeStyle=orthogonalEdgeStyle;rounded=0;orthogonalLoop=1;jettySize=auto;html=1;endArrow=open;endFill=0;strokeWidth=2;entryX=0;entryY=0.5;entryDx=0;entryDy=0;exitX=0.981;exitY=0.48;exitDx=0;exitDy=0;exitPerimeter=0;" edge="1" parent="1" source="5zxUk0K1NqiDHCe18hxs-92" target="5zxUk0K1NqiDHCe18hxs-59">
          <mxGeometry relative="1" as="geometry">
            <mxPoint x="178" y="344" as="sourcePoint" />
            <mxPoint x="190" y="415" as="targetPoint" />
          </mxGeometry>
        </mxCell>
        <mxCell id="5zxUk0K1NqiDHCe18hxs-79" value="" style="sketch=0;points=[[0,0,0],[0.25,0,0],[0.5,0,0],[0.75,0,0],[1,0,0],[0,1,0],[0.25,1,0],[0.5,1,0],[0.75,1,0],[1,1,0],[0,0.25,0],[0,0.5,0],[0,0.75,0],[1,0.25,0],[1,0.5,0],[1,0.75,0]];outlineConnect=0;fontColor=#232F3E;fillColor=#01A88D;strokeColor=#ffffff;dashed=0;verticalLabelPosition=bottom;verticalAlign=top;align=center;html=1;fontSize=12;fontStyle=0;aspect=fixed;shape=mxgraph.aws4.resourceIcon;resIcon=mxgraph.aws4.apache_mxnet_on_aws;" vertex="1" parent="1">
          <mxGeometry x="330" y="375" width="78" height="78" as="geometry" />
        </mxCell>
        <mxCell id="5zxUk0K1NqiDHCe18hxs-80" value="" style="sketch=0;points=[[0,0,0],[0.25,0,0],[0.5,0,0],[0.75,0,0],[1,0,0],[0,1,0],[0.25,1,0],[0.5,1,0],[0.75,1,0],[1,1,0],[0,0.25,0],[0,0.5,0],[0,0.75,0],[1,0.25,0],[1,0.5,0],[1,0.75,0]];outlineConnect=0;fontColor=#232F3E;fillColor=#7AA116;strokeColor=#ffffff;dashed=0;verticalLabelPosition=bottom;verticalAlign=top;align=center;html=1;fontSize=12;fontStyle=0;aspect=fixed;shape=mxgraph.aws4.resourceIcon;resIcon=mxgraph.aws4.storage;" vertex="1" parent="1">
          <mxGeometry x="470" y="375" width="78" height="78" as="geometry" />
        </mxCell>
        <mxCell id="5zxUk0K1NqiDHCe18hxs-81" value="" style="sketch=0;points=[[0,0,0],[0.25,0,0],[0.5,0,0],[0.75,0,0],[1,0,0],[0,1,0],[0.25,1,0],[0.5,1,0],[0.75,1,0],[1,1,0],[0,0.25,0],[0,0.5,0],[0,0.75,0],[1,0.25,0],[1,0.5,0],[1,0.75,0]];outlineConnect=0;fontColor=#232F3E;fillColor=#01A88D;strokeColor=#ffffff;dashed=0;verticalLabelPosition=bottom;verticalAlign=top;align=center;html=1;fontSize=12;fontStyle=0;aspect=fixed;shape=mxgraph.aws4.resourceIcon;resIcon=mxgraph.aws4.bedrock;" vertex="1" parent="1">
          <mxGeometry x="660" y="245" width="78" height="78" as="geometry" />
        </mxCell>
        <mxCell id="5zxUk0K1NqiDHCe18hxs-82" value="" style="sketch=0;points=[[0,0,0],[0.25,0,0],[0.5,0,0],[0.75,0,0],[1,0,0],[0,1,0],[0.25,1,0],[0.5,1,0],[0.75,1,0],[1,1,0],[0,0.25,0],[0,0.5,0],[0,0.75,0],[1,0.25,0],[1,0.5,0],[1,0.75,0]];outlineConnect=0;fontColor=#232F3E;fillColor=#01A88D;strokeColor=#ffffff;dashed=0;verticalLabelPosition=bottom;verticalAlign=top;align=center;html=1;fontSize=12;fontStyle=0;aspect=fixed;shape=mxgraph.aws4.resourceIcon;resIcon=mxgraph.aws4.augmented_ai;" vertex="1" parent="1">
          <mxGeometry x="660" y="375" width="78" height="78" as="geometry" />
        </mxCell>
        <mxCell id="5zxUk0K1NqiDHCe18hxs-83" value="" style="sketch=0;points=[[0,0,0],[0.25,0,0],[0.5,0,0],[0.75,0,0],[1,0,0],[0,1,0],[0.25,1,0],[0.5,1,0],[0.75,1,0],[1,1,0],[0,0.25,0],[0,0.5,0],[0,0.75,0],[1,0.25,0],[1,0.5,0],[1,0.75,0]];outlineConnect=0;fontColor=#232F3E;fillColor=#01A88D;strokeColor=#ffffff;dashed=0;verticalLabelPosition=bottom;verticalAlign=top;align=center;html=1;fontSize=12;fontStyle=0;aspect=fixed;shape=mxgraph.aws4.resourceIcon;resIcon=mxgraph.aws4.bedrock;" vertex="1" parent="1">
          <mxGeometry x="660" y="505" width="78" height="78" as="geometry" />
        </mxCell>
        <mxCell id="5zxUk0K1NqiDHCe18hxs-84" value="" style="whiteSpace=wrap;html=1;aspect=fixed;dashed=0;strokeColor=#ffffff;align=center;verticalAlign=top;fontFamily=Helvetica;fontSize=12;fontColor=#232F3E;fontStyle=0;labelBackgroundColor=#ffffff;fillColor=light-dark(#dd344c, #ff97d1);gradientColor=none;gradientDirection=north;" vertex="1" parent="1">
          <mxGeometry x="1060" y="453" width="78" height="78" as="geometry" />
        </mxCell>
        <mxCell id="5zxUk0K1NqiDHCe18hxs-85" value="" style="sketch=0;points=[[0,0,0],[0.25,0,0],[0.5,0,0],[0.75,0,0],[1,0,0],[0,1,0],[0.25,1,0],[0.5,1,0],[0.75,1,0],[1,1,0],[0,0.25,0],[0,0.5,0],[0,0.75,0],[1,0.25,0],[1,0.5,0],[1,0.75,0]];outlineConnect=0;fontColor=#232F3E;fillColor=#01A88D;strokeColor=#ffffff;dashed=0;verticalLabelPosition=bottom;verticalAlign=top;align=center;html=1;fontSize=12;fontStyle=0;aspect=fixed;shape=mxgraph.aws4.resourceIcon;resIcon=mxgraph.aws4.devops_guru;" vertex="1" parent="1">
          <mxGeometry x="880" y="375" width="78" height="78" as="geometry" />
        </mxCell>
        <mxCell id="5zxUk0K1NqiDHCe18hxs-86" value="" style="sketch=0;points=[[0,0,0],[0.25,0,0],[0.5,0,0],[0.75,0,0],[1,0,0],[0,1,0],[0.25,1,0],[0.5,1,0],[0.75,1,0],[1,1,0],[0,0.25,0],[0,0.5,0],[0,0.75,0],[1,0.25,0],[1,0.5,0],[1,0.75,0]];outlineConnect=0;fontColor=#232F3E;fillColor=#DD344C;strokeColor=#ffffff;dashed=0;verticalLabelPosition=bottom;verticalAlign=top;align=center;html=1;fontSize=12;fontStyle=0;aspect=fixed;shape=mxgraph.aws4.resourceIcon;resIcon=mxgraph.aws4.mobile;" vertex="1" parent="1">
          <mxGeometry x="1060" y="297" width="78" height="78" as="geometry" />
        </mxCell>
        <mxCell id="5zxUk0K1NqiDHCe18hxs-87" value="" style="sketch=0;outlineConnect=0;fontColor=#232F3E;gradientColor=none;fillColor=light-dark(#ffffff, #ff7f93);strokeColor=none;dashed=0;verticalLabelPosition=bottom;verticalAlign=top;align=center;html=1;fontSize=12;fontStyle=0;aspect=fixed;shape=mxgraph.aws4.amplify_aws_amplify_studio;" vertex="1" parent="1">
          <mxGeometry x="1075" y="472" width="48" height="44" as="geometry" />
        </mxCell>
        <mxCell id="5zxUk0K1NqiDHCe18hxs-88" value="" style="sketch=0;points=[[0,0,0],[0.25,0,0],[0.5,0,0],[0.75,0,0],[1,0,0],[0,1,0],[0.25,1,0],[0.5,1,0],[0.75,1,0],[1,1,0],[0,0.25,0],[0,0.5,0],[0,0.75,0],[1,0.25,0],[1,0.5,0],[1,0.75,0]];outlineConnect=0;fontColor=#232F3E;gradientColor=#F34482;gradientDirection=north;fillColor=#BC1356;strokeColor=#ffffff;dashed=0;verticalLabelPosition=bottom;verticalAlign=top;align=center;html=1;fontSize=12;fontStyle=0;aspect=fixed;shape=mxgraph.aws4.resourceIcon;resIcon=mxgraph.aws4.ar_vr;" vertex="1" parent="1">
          <mxGeometry x="330" y="375" width="78" height="78" as="geometry" />
        </mxCell>
        <mxCell id="5zxUk0K1NqiDHCe18hxs-89" value="" style="sketch=0;points=[[0,0,0],[0.25,0,0],[0.5,0,0],[0.75,0,0],[1,0,0],[0,1,0],[0.25,1,0],[0.5,1,0],[0.75,1,0],[1,1,0],[0,0.25,0],[0,0.5,0],[0,0.75,0],[1,0.25,0],[1,0.5,0],[1,0.75,0]];outlineConnect=0;fontColor=#232F3E;fillColor=#E7157B;strokeColor=#ffffff;dashed=0;verticalLabelPosition=bottom;verticalAlign=top;align=center;html=1;fontSize=12;fontStyle=0;aspect=fixed;shape=mxgraph.aws4.resourceIcon;resIcon=mxgraph.aws4.appsync;" vertex="1" parent="1">
          <mxGeometry x="330" y="375" width="78" height="78" as="geometry" />
        </mxCell>
        <mxCell id="5zxUk0K1NqiDHCe18hxs-90" value="" style="sketch=0;outlineConnect=0;fontColor=#232F3E;gradientColor=none;fillColor=light-dark(#ffffff, #d86d0c);strokeColor=none;dashed=0;verticalLabelPosition=bottom;verticalAlign=top;align=center;html=1;fontSize=12;fontStyle=0;aspect=fixed;pointerEvents=1;shape=mxgraph.aws4.f1_instance;" vertex="1" parent="1">
          <mxGeometry x="205" y="391" width="48" height="48" as="geometry" />
        </mxCell>
        <mxCell id="5zxUk0K1NqiDHCe18hxs-91" value="Raw Video Stream" style="outlineConnect=0;fontColor=#232F3E;gradientColor=#F34482;gradientDirection=north;fillColor=#BC1356;strokeColor=#ffffff;dashed=0;verticalLabelPosition=bottom;verticalAlign=top;align=center;html=1;fontSize=12;fontStyle=0;aspect=fixed;shape=mxgraph.aws4.resourceIcon;resIcon=mxgraph.aws4.sqs;labelBackgroundColor=#ffffff;" vertex="1" parent="1">
          <mxGeometry x="50" y="376" width="78" height="78" as="geometry" />
        </mxCell>
        <mxCell id="5zxUk0K1NqiDHCe18hxs-92" value="" style="whiteSpace=wrap;html=1;aspect=fixed;dashed=0;strokeColor=none;align=center;verticalAlign=top;fontFamily=Helvetica;fontSize=12;fontColor=#232F3E;fontStyle=0;labelBackgroundColor=#ffffff;fillColor=light-dark(#ed7100, #ff97d1);gradientColor=none;gradientDirection=north;" vertex="1" parent="1">
          <mxGeometry x="50" y="376" width="78" height="78" as="geometry" />
        </mxCell>
        <mxCell id="5zxUk0K1NqiDHCe18hxs-93" value="" style="sketch=0;outlineConnect=0;fontColor=#232F3E;gradientColor=none;fillColor=light-dark(#ffffff, #ff81d9);strokeColor=none;dashed=0;verticalLabelPosition=bottom;verticalAlign=top;align=center;html=1;fontSize=12;fontStyle=0;aspect=fixed;pointerEvents=1;shape=mxgraph.aws4.systems_manager_distributor;" vertex="1" parent="1">
          <mxGeometry x="64" y="390" width="50" height="50" as="geometry" />
        </mxCell>
        <mxCell id="5zxUk0K1NqiDHCe18hxs-94" value="Vision / Gesture Models" style="text;strokeColor=none;align=center;fillColor=none;html=1;verticalAlign=middle;whiteSpace=wrap;rounded=0;fontStyle=1;fontSize=19;" vertex="1" parent="1">
          <mxGeometry x="613.25" y="178" width="171.5" height="30" as="geometry" />
        </mxCell>
        <mxCell id="5zxUk0K1NqiDHCe18hxs-96" value="Input Handling" style="text;strokeColor=none;align=center;fillColor=none;html=1;verticalAlign=middle;whiteSpace=wrap;rounded=0;fontStyle=1;fontSize=19;" vertex="1" parent="1">
          <mxGeometry x="205" y="170" width="171.5" height="30" as="geometry" />
        </mxCell>
        <mxCell id="5zxUk0K1NqiDHCe18hxs-97" value="Control Mapping" style="text;strokeColor=none;align=center;fillColor=none;html=1;verticalAlign=middle;whiteSpace=wrap;rounded=0;fontStyle=1;fontSize=19;" vertex="1" parent="1">
          <mxGeometry x="910" y="170" width="171.5" height="30" as="geometry" />
        </mxCell>
      </root>
    </mxGraphModel>
  </diagram>
</mxfile>
